<svg width="40" height="40" viewBox="0 0 40 40" fill="none" xmlns="http://www.w3.org/2000/svg">
<path d="M34.375 31.0547C35.2344 31.4844 36.0091 32.0117 36.6992 32.6367C37.3893 33.2617 37.9753 33.9583 38.457 34.7266C38.9388 35.4948 39.3164 36.3281 39.5898 37.2266C39.8633 38.125 40 39.0495 40 40H37.5C37.5 38.9714 37.3047 38.0013 36.9141 37.0898C36.5234 36.1784 35.9896 35.3841 35.3125 34.707C34.6354 34.0299 33.8346 33.4896 32.9102 33.0859C31.9857 32.6823 31.0156 32.487 30 32.5C28.9583 32.5 27.9883 32.6953 27.0898 33.0859C26.1914 33.4766 25.3971 34.0104 24.707 34.6875C24.0169 35.3646 23.4766 36.1654 23.0859 37.0898C22.6953 38.0143 22.5 38.9844 22.5 40H20C20 39.0495 20.1302 38.125 20.3906 37.2266C20.651 36.3281 21.0286 35.4948 21.5234 34.7266C22.0182 33.9583 22.6107 33.2617 23.3008 32.6367C23.9909 32.0117 24.7656 31.4844 25.625 31.0547C24.6484 30.3516 23.8867 29.4727 23.3398 28.418C22.793 27.3633 22.513 26.224 22.5 25C22.5 23.9714 22.6953 23.0013 23.0859 22.0898C23.4766 21.1784 24.0104 20.3841 24.6875 19.707C25.3646 19.0299 26.1589 18.4896 27.0703 18.0859C27.9818 17.6823 28.9583 17.487 30 17.5C31.0286 17.5 31.9987 17.6953 32.9102 18.0859C33.8216 18.4766 34.6159 19.0104 35.293 19.6875C35.9701 20.3646 36.5104 21.1654 36.9141 22.0898C37.3177 23.0143 37.513 23.9844 37.5 25C37.5 26.224 37.2266 27.3633 36.6797 28.418C36.1328 29.4727 35.3646 30.3516 34.375 31.0547ZM30 30C30.6901 30 31.3346 29.8698 31.9336 29.6094C32.5326 29.349 33.0664 28.9909 33.5352 28.5352C34.0039 28.0794 34.362 27.5521 34.6094 26.9531C34.8568 26.3542 34.987 25.7031 35 25C35 24.3099 34.8698 23.6654 34.6094 23.0664C34.349 22.4674 33.9909 21.9336 33.5352 21.4648C33.0794 20.9961 32.5521 20.638 31.9531 20.3906C31.3542 20.1432 30.7031 20.013 30 20C29.3099 20 28.6654 20.1302 28.0664 20.3906C27.4674 20.651 26.9336 21.0091 26.4648 21.4648C25.9961 21.9206 25.638 22.4479 25.3906 23.0469C25.1432 23.6458 25.013 24.2969 25 25C25 25.6901 25.1302 26.3346 25.3906 26.9336C25.651 27.5326 26.0091 28.0664 26.4648 28.5352C26.9206 29.0039 27.4479 29.362 28.0469 29.6094C28.6458 29.8568 29.2969 29.987 30 30ZM20 31.5625C19.5833 32.0443 19.2057 32.5456 18.8672 33.0664C18.5286 33.5872 18.2292 34.1471 17.9688 34.7461C17.2786 34.0299 16.4453 33.4766 15.4688 33.0859C14.4922 32.6953 13.5026 32.5 12.5 32.5H5V7.5H2.5V35H17.8711C17.6888 35.4036 17.5391 35.8138 17.4219 36.2305C17.3047 36.6471 17.207 37.0703 17.1289 37.5H0V5H5V2.5H12.5C13.6458 2.5 14.7461 2.67578 15.8008 3.02734C16.8555 3.37891 17.8385 3.90625 18.75 4.60938C19.6484 3.90625 20.625 3.37891 21.6797 3.02734C22.7344 2.67578 23.8411 2.5 25 2.5H32.5V5H37.5V17.5C36.7448 16.7578 35.9115 16.1393 35 15.6445V7.5H32.5V14.707C32.0833 14.5898 31.6667 14.5052 31.25 14.4531C30.8333 14.401 30.4167 14.375 30 14.375V5H25C24.0885 5 23.2031 5.15625 22.3438 5.46875C21.4844 5.78125 20.7031 6.24349 20 6.85547V31.5625ZM17.5 31.3086V6.85547C16.7969 6.25651 16.0156 5.80078 15.1562 5.48828C14.2969 5.17578 13.4115 5.01302 12.5 5H7.5V30H12.5C13.3724 30 14.2318 30.1107 15.0781 30.332C15.9245 30.5534 16.7318 30.8789 17.5 31.3086Z" fill="#699BF7"/>
</svg>
