<svg width="2048" height="2048" viewBox="0 0 2048 2048" fill="none" xmlns="http://www.w3.org/2000/svg">
<path d="M1582 1065C1609.33 1113 1629.67 1163 1643 1215C1656.33 1267 1663.33 1320.67 1664 1376V1479L1024 1800L384 1479C384 1439 384.333 1401.67 385 1367C385.667 1332.33 388.667 1298.67 394 1266C399.333 1233.33 407.333 1200.67 418 1168C428.667 1135.33 444.667 1101 466 1065L256 960V1547C275.333 1553.67 292.667 1563 308 1575C323.333 1587 337 1601 349 1617C361 1633 369.667 1650.33 375 1669C380.333 1687.67 383.333 1707.33 384 1728V2048H0V1728C0 1708 3 1688.67 9 1670C15 1651.33 23.6667 1633.67 35 1617C46.3333 1600.33 59.6667 1586.33 75 1575C90.3333 1563.67 108 1554.33 128 1547V896L0 832L1024 320L2048 832L1582 1065ZM256 1728C256 1710.67 249.667 1695.67 237 1683C224.333 1670.33 209.333 1664 192 1664C174.667 1664 159.667 1670.33 147 1683C134.333 1695.67 128 1710.67 128 1728V1920H256V1728ZM286 832L1024 1201L1762 832L1024 463L286 832ZM1536 1400C1536 1348.67 1531 1301 1521 1257C1511 1213 1493.33 1168 1468 1122L1024 1344L580 1122C558 1160.67 541.333 1201.33 530 1244C518.667 1286.67 512.667 1330.67 512 1376V1400L1024 1656L1536 1400Z" fill="#699BF7"/>
</svg>
