<svg width="32" height="32" viewBox="0 0 32 32" fill="none" xmlns="http://www.w3.org/2000/svg">
<path d="M29.435 2.565C29.0636 2.19355 28.6226 1.89889 28.1373 1.69786C27.652 1.49683 27.1318 1.39336 26.6065 1.39336C26.0812 1.39336 25.5611 1.49683 25.0757 1.69786C24.5904 1.89889 24.1495 2.19355 23.778 2.565L23.744 2.599C23.5549 2.49808 23.3383 2.46063 23.1262 2.49217C22.9141 2.52371 22.7178 2.62258 22.5662 2.77418C22.4146 2.92579 22.3157 3.1221 22.2842 3.33417C22.2526 3.54624 22.2901 3.76284 22.391 3.952L13.875 12.468L13.729 12.322C13.6353 12.2283 13.5081 12.1756 13.3755 12.1756C13.2429 12.1756 13.1158 12.2283 13.022 12.322L12.314 13.029C12.2203 13.1228 12.1676 13.2499 12.1676 13.3825C12.1676 13.5151 12.2203 13.6422 12.314 13.736L12.461 13.882L5.74702 20.596C5.60763 20.7353 5.49705 20.9007 5.42161 21.0828C5.34617 21.2648 5.30734 21.4599 5.30734 21.657C5.30734 21.8541 5.34617 22.0492 5.42161 22.2312C5.49705 22.4133 5.60763 22.5787 5.74702 22.718L4.45002 24.014C4.13911 24.3243 3.90015 24.6992 3.75002 25.112L2.26902 29.2C2.24206 29.2745 2.23689 29.3552 2.25411 29.4325C2.27134 29.5099 2.31024 29.5807 2.36628 29.6367C2.42231 29.6928 2.49315 29.7317 2.5705 29.7489C2.64785 29.7661 2.7285 29.761 2.80302 29.734L6.89002 28.248C7.30196 28.0982 7.67607 27.8599 7.98602 27.55L9.28302 26.253C9.42232 26.3924 9.58772 26.503 9.76977 26.5784C9.95182 26.6539 10.147 26.6927 10.344 26.6927C10.5411 26.6927 10.7362 26.6539 10.9183 26.5784C11.1003 26.503 11.2657 26.3924 11.405 26.253L18.119 19.539L18.199 19.619C18.2927 19.7124 18.4197 19.7649 18.552 19.7649C18.6844 19.7649 18.8113 19.7124 18.905 19.619L19.612 18.911C19.7058 18.8172 19.7584 18.6901 19.7584 18.5575C19.7584 18.4249 19.7058 18.2978 19.612 18.204L19.533 18.124L23.537 14.121C23.4367 14.3339 23.4148 14.5754 23.4749 14.8029C23.5351 15.0304 23.6736 15.2294 23.8661 15.3649C24.0585 15.5003 24.2926 15.5636 24.5271 15.5435C24.7615 15.5234 24.9814 15.4212 25.148 15.255L30.098 10.305C30.2855 10.1175 30.3908 9.86317 30.3908 9.598C30.3908 9.33284 30.2855 9.07853 30.098 8.891L29.432 8.225L29.436 8.222C29.8075 7.85056 30.1021 7.4096 30.3032 6.92428C30.5042 6.43897 30.6077 5.91881 30.6077 5.3935C30.6077 4.8682 30.5042 4.34804 30.3032 3.86272C30.1021 3.3774 29.8075 2.93644 29.436 2.565H29.435ZM28.017 6.811L25.19 3.983L25.193 3.979C25.5682 3.60385 26.077 3.3931 26.6075 3.3931C26.8702 3.3931 27.1303 3.44484 27.373 3.54537C27.6157 3.6459 27.8363 3.79325 28.022 3.979C28.2078 4.16476 28.3551 4.38528 28.4557 4.62798C28.5562 4.87068 28.6079 5.1308 28.6079 5.3935C28.6079 5.6562 28.5562 5.91632 28.4557 6.15902C28.3551 6.40172 28.2078 6.62225 28.022 6.808L28.017 6.811ZM23.775 5.397L26.603 8.225L18.118 16.711L15.289 13.882L23.775 5.397ZM7.51502 21.657L13.875 15.297L16.704 18.125L10.344 24.485L7.51502 21.657ZM6.80802 26.607C6.62038 26.7946 6.36588 26.9001 6.10052 26.9001C5.83515 26.9001 5.58066 26.7946 5.39302 26.607C5.20538 26.4194 5.09996 26.1649 5.09996 25.8995C5.09996 25.6341 5.20538 25.3796 5.39302 25.192C5.48593 25.0991 5.59623 25.0254 5.71762 24.9751C5.83902 24.9248 5.96912 24.8989 6.10052 24.8989C6.23191 24.8989 6.36202 24.9248 6.48341 24.9751C6.60481 25.0254 6.71511 25.0991 6.80802 25.192C6.90093 25.2849 6.97463 25.3952 7.02491 25.5166C7.07519 25.638 7.10107 25.7681 7.10107 25.8995C7.10107 26.0309 7.07519 26.161 7.02491 26.2824C6.97463 26.4038 6.90093 26.5141 6.80802 26.607Z" fill="#699BF7"/>
</svg>
