<svg width="18" height="12" viewBox="0 0 18 12" fill="none" xmlns="http://www.w3.org/2000/svg">
<path d="M18 10.5V1.5C18 0.67 17.33 0 16.5 0H2.48999C1.65999 0 0.98999 0.67 0.98999 1.5V10.5C0.98999 11.33 1.65999 12 2.48999 12H16.5C17.33 12 18 11.33 18 10.5ZM16.69 1.39C17.02 1.72 16.84 2.06 16.66 2.23L12.6 5.95L16.5 10.01C16.62 10.15 16.7 10.37 16.56 10.52C16.43 10.68 16.13 10.67 16 10.57L11.63 6.84L9.48999 8.79L7.35999 6.84L2.98999 10.57C2.85999 10.67 2.55999 10.68 2.42999 10.52C2.28999 10.37 2.36999 10.15 2.48999 10.01L6.38999 5.95L2.32999 2.23C2.14999 2.06 1.96999 1.72 2.29999 1.39C2.62999 1.06 2.96999 1.22 3.24999 1.46L9.48999 6.5L15.74 1.46C16.02 1.22 16.36 1.06 16.69 1.39Z" fill="#F8F8F8"/>
</svg>
