<svg width="256" height="256" viewBox="0 0 256 256" fill="none" xmlns="http://www.w3.org/2000/svg">
<path d="M147.8 36.9C148.206 35.3762 148.909 33.9474 149.868 32.6953C150.827 31.4432 152.023 30.3924 153.388 29.603C154.753 28.8136 156.261 28.301 157.824 28.0946C159.388 27.8882 160.977 27.9919 162.5 28.4C178.099 32.6044 192.322 40.8298 203.746 52.2539C215.17 63.6779 223.396 77.9006 227.6 93.5C228.008 95.0234 228.112 96.6122 227.905 98.1757C227.699 99.7392 227.186 101.247 226.397 102.612C225.608 103.977 224.557 105.173 223.305 106.132C222.053 107.091 220.624 107.794 219.1 108.2C218.091 108.48 217.047 108.615 216 108.6C213.36 108.585 210.798 107.707 208.704 106.1C206.609 104.493 205.098 102.246 204.4 99.7C201.312 88.1651 195.24 77.6469 186.797 69.2032C178.353 60.7596 167.835 54.6883 156.3 51.6C154.776 51.1937 153.347 50.4911 152.095 49.5322C150.843 48.5734 149.792 47.3771 149.003 46.0119C148.214 44.6466 147.701 43.1392 147.495 41.5757C147.288 40.0122 147.392 38.4234 147.8 36.9ZM235.5 175.6C233.651 190.076 226.59 203.383 215.638 213.028C204.686 222.673 190.594 227.996 176 228C94.4 228 28 161.6 28 80C28.0041 65.4062 33.327 51.3141 42.9722 40.362C52.6174 29.4099 65.9237 22.3486 80.4 20.5C84.7008 19.9621 89.0597 20.8431 92.814 23.0091C96.5683 25.1751 99.5128 28.5075 101.2 32.5L121.3 79.3C122.627 82.3346 123.176 85.6525 122.897 88.9529C122.617 92.2533 121.518 95.4317 119.7 98.2L104.3 121.6C111.122 134.493 121.685 145.02 134.6 151.8L157.7 136.4C160.478 134.565 163.669 133.449 166.985 133.152C170.302 132.856 173.64 133.387 176.7 134.7L223.5 154.8C227.492 156.487 230.825 159.432 232.991 163.186C235.157 166.94 236.038 171.299 235.5 175.6ZM211.2 175.6L169.2 157.6L146 173.1C143.114 175.009 139.785 176.141 136.334 176.386C132.883 176.632 129.427 175.982 126.3 174.5C106.89 165.1 91.1875 149.468 81.7 130.1C80.1743 126.99 79.4914 123.533 79.7195 120.076C79.9476 116.62 81.0788 113.283 83 110.4L98.4 86.8L80.4 44.8C72.3558 46.5374 65.1498 50.9784 59.9821 57.3833C54.8145 63.7883 51.9974 71.7704 52 80C52.0265 112.879 65.0992 144.403 88.348 167.652C111.597 190.901 143.121 203.974 176 204C184.23 204.003 192.212 201.185 198.617 196.018C205.022 190.85 209.463 183.644 211.2 175.6ZM145.6 89.5C150.519 91.0239 154.993 93.7235 158.635 97.3651C162.277 101.007 164.976 105.481 166.5 110.4C167.282 112.836 168.817 114.962 170.883 116.471C172.95 117.98 175.441 118.796 178 118.8C179.225 118.796 180.44 118.594 181.6 118.2C183.101 117.734 184.495 116.974 185.701 115.966C186.907 114.958 187.902 113.721 188.627 112.326C189.352 110.931 189.794 109.407 189.927 107.84C190.059 106.274 189.88 104.697 189.4 103.2C186.709 94.5968 181.974 86.7735 175.6 80.3996C169.226 74.0256 161.403 69.2907 152.8 66.6C149.763 65.6452 146.472 65.9359 143.649 67.4081C140.827 68.8802 138.705 71.4133 137.75 74.45C136.795 77.4867 137.086 80.7784 138.558 83.6008C140.03 86.4232 142.563 88.5452 145.6 89.5Z" fill="#F8F8F8"/>
</svg>
